<?xml version="1.0" encoding="UTF-8"?>
<!DOCTYPE svg PUBLIC "-//W3C//DTD SVG 1.1//EN" "http://www.w3.org/Graphics/SVG/1.1/DTD/svg11.dtd">
<svg xmlns="http://www.w3.org/2000/svg" color="white" version="1.1" width="586px" height="426px" style="shape-rendering:geometricPrecision; text-rendering:geometricPrecision; image-rendering:optimizeQuality; fill-rule:evenodd; clip-rule:evenodd" xmlns:xlink="http://www.w3.org/1999/xlink">
<g><path style="opacity:0.004" fill="#fefffe" d="M 389.5,5.5 C 390.833,6.16667 390.833,6.16667 389.5,5.5 Z"/></g>
<g><path style="opacity:0.004" fill="#fefffe" d="M 74.5,11.5 C 75.8333,12.1667 75.8333,12.1667 74.5,11.5 Z"/></g>
<g><path style="opacity:0.004" fill="#fefffe" d="M 439.5,18.5 C 440.833,19.1667 440.833,19.1667 439.5,18.5 Z"/></g>
<g><path style="opacity:0.004" fill="#fefffe" d="M 4.5,21.5 C 5.83333,22.1667 5.83333,22.1667 4.5,21.5 Z"/></g>
<g><path style="opacity:0.004" fill="#fefffe" d="M 583.5,33.5 C 584.833,34.1667 584.833,34.1667 583.5,33.5 Z"/></g>
<g><path style="opacity:0.004" fill="#fefffe" d="M 154.5,36.5 C 155.833,37.1667 155.833,37.1667 154.5,36.5 Z"/></g>
<g><path style="opacity:0.004" fill="#fefffe" d="M 141.5,37.5 C 142.833,38.1667 142.833,38.1667 141.5,37.5 Z"/></g>
<g><path style="opacity:0.004" fill="#fefffe" d="M 519.5,49.5 C 520.833,50.1667 520.833,50.1667 519.5,49.5 Z"/></g>
<g><path style="opacity:0.004" fill="#fefffe" d="M 537.5,49.5 C 538.833,50.1667 538.833,50.1667 537.5,49.5 Z"/></g>
<g><path style="opacity:0.004" fill="#fefffe" d="M 137.5,50.5 C 138.833,51.1667 138.833,51.1667 137.5,50.5 Z"/></g>
<g><path style="opacity:0.004" fill="#fefffe" d="M 236.5,53.5 C 237.833,54.1667 237.833,54.1667 236.5,53.5 Z"/></g>
<g><path style="opacity:0.004" fill="#fefffe" d="M 211.5,54.5 C 212.833,55.1667 212.833,55.1667 211.5,54.5 Z"/></g>
<g><path style="opacity:0.004" fill="#fefffe" d="M 320.5,62.5 C 321.833,63.1667 321.833,63.1667 320.5,62.5 Z"/></g>
<g><path style="opacity:0.004" fill="#fefffe" d="M 428.5,62.5 C 429.833,63.1667 429.833,63.1667 428.5,62.5 Z"/></g>
<g><path style="opacity:0.004" fill="#fefffe" d="M 306.5,70.5 C 307.833,71.1667 307.833,71.1667 306.5,70.5 Z"/></g>
<g><path style="opacity:0.004" fill="#fefffe" d="M 467.5,74.5 C 468.833,75.1667 468.833,75.1667 467.5,74.5 Z"/></g>
<g><path style="opacity:0.004" fill="#fefffe" d="M 41.5,83.5 C 42.8333,84.1667 42.8333,84.1667 41.5,83.5 Z"/></g>
<g><path style="opacity:0.004" fill="#fefffe" d="M 496.5,84.5 C 497.833,85.1667 497.833,85.1667 496.5,84.5 Z"/></g>
<g><path style="opacity:0.377" fill="#070707" d="M 361.5,197.5 C 359.932,198.473 358.265,198.64 356.5,198C 357.056,197.617 357.389,197.117 357.5,196.5C 358.833,167.833 358.833,139.167 357.5,110.5C 308.833,110.5 260.167,110.5 211.5,110.5C 211.389,109.883 211.056,109.383 210.5,109C 215.555,107.763 220.722,107.93 226,109.5C 269.401,108.213 312.901,108.213 356.5,109.5C 357.5,109 358.5,108.5 359.5,108C 357.884,106.923 356.051,106.423 354,106.5C 311.844,107.509 269.678,107.509 227.5,106.5C 227.5,105.167 228.167,104.5 229.5,104.5C 231.234,103.438 232.901,103.438 234.5,104.5C 273.762,105.66 313.096,105.827 352.5,105C 354.101,104.727 355.601,104.227 357,103.5C 357.812,99.3112 357.645,95.3112 356.5,91.5C 355.895,89.9743 354.729,88.9743 353,88.5C 314.736,89.8321 276.569,89.8321 238.5,88.5C 279.118,87.3668 319.784,87.2002 360.5,88C 361.167,94.6667 361.833,101.333 362.5,108C 361.505,137.76 361.171,167.593 361.5,197.5 Z"/></g>
<g><path style="opacity:0.794" fill="#333334" d="M 223.5,94.5 C 223.427,96.0269 224.094,97.0269 225.5,97.5C 225.834,100.188 225.168,102.521 223.5,104.5C 221.926,102.898 221.259,100.898 221.5,98.5C 220.053,97.1148 219.053,97.4482 218.5,99.5C 218.166,101.335 218.166,103.002 218.5,104.5C 215.089,102.114 214.256,99.1138 216,95.5C 218.381,94.565 220.881,94.2317 223.5,94.5 Z M 221.5,98.5 C 220.391,98.5569 219.391,98.8902 218.5,99.5C 219.053,97.4482 220.053,97.1148 221.5,98.5 Z"/></g>
<g><path style="opacity:0.004" fill="#fefffe" d="M 26.5,95.5 C 27.8333,96.1667 27.8333,96.1667 26.5,95.5 Z"/></g>
<g><path style="opacity:0.004" fill="#fefffe" d="M 175.5,96.5 C 176.833,97.1667 176.833,97.1667 175.5,96.5 Z"/></g>
<g><path style="opacity:0.122" fill="#a8a8a8" d="M 223.5,94.5 C 224.906,94.9731 225.573,95.9731 225.5,97.5C 224.094,97.0269 223.427,96.0269 223.5,94.5 Z"/></g>
<g><path style="opacity:0.622" fill="#2d2d2d" d="M 234.5,104.5 C 232.901,103.438 231.234,103.438 229.5,104.5C 226.67,102.638 225.837,99.9711 227,96.5C 229.47,94.5135 232.303,94.0135 235.5,95C 238.066,98.47 237.733,101.637 234.5,104.5 Z M 231.5,97.5 C 232.376,97.3691 233.043,97.7025 233.5,98.5C 231.192,99.8734 230.525,99.5401 231.5,97.5 Z"/></g>
<g><path style="opacity:0.004" fill="#fefffe" d="M 137.5,101.5 C 138.833,102.167 138.833,102.167 137.5,101.5 Z"/></g>
<g><path style="opacity:0.004" fill="#fefffe" d="M 401.5,101.5 C 402.833,102.167 402.833,102.167 401.5,101.5 Z"/></g>
<g><path style="opacity:0.004" fill="#fefffe" d="M 176.5,104.5 C 177.833,105.167 177.833,105.167 176.5,104.5 Z"/></g>
<g><path style="opacity:0.957" fill="#1c1c1c" d="M 238.5,88.5 C 276.569,89.8321 314.736,89.8321 353,88.5C 354.729,88.9743 355.895,89.9743 356.5,91.5C 308.167,91.5 259.833,91.5 211.5,91.5C 211.5,96.5 211.5,101.5 211.5,106.5C 213.527,106.662 215.527,106.495 217.5,106C 218.056,105.617 218.389,105.117 218.5,104.5C 218.166,103.002 218.166,101.335 218.5,99.5C 219.391,98.8902 220.391,98.5569 221.5,98.5C 221.259,100.898 221.926,102.898 223.5,104.5C 224.833,105.167 226.167,105.833 227.5,106.5C 269.678,107.509 311.844,107.509 354,106.5C 356.051,106.423 357.884,106.923 359.5,108C 358.5,108.5 357.5,109 356.5,109.5C 312.901,108.213 269.401,108.213 226,109.5C 220.722,107.93 215.555,107.763 210.5,109C 211.056,109.383 211.389,109.883 211.5,110.5C 211.5,138.833 211.5,167.167 211.5,195.5C 241.167,195.5 270.833,195.5 300.5,195.5C 319.326,196.497 338.326,196.83 357.5,196.5C 357.389,197.117 357.056,197.617 356.5,198C 358.265,198.64 359.932,198.473 361.5,197.5C 336.856,199.491 311.856,200.157 286.5,199.5C 286.5,206.833 286.5,214.167 286.5,221.5C 300.323,222.496 314.323,222.829 328.5,222.5C 328.5,223.5 328.5,224.5 328.5,225.5C 298.833,225.5 269.167,225.5 239.5,225.5C 239.263,224.209 239.596,223.209 240.5,222.5C 254.833,222.5 269.167,222.5 283.5,222.5C 283.825,214.648 283.492,206.982 282.5,199.5C 258.006,198.502 233.339,198.169 208.5,198.5C 208.5,161.833 208.5,125.167 208.5,88.5C 218.29,88.3813 228.29,88.3813 238.5,88.5 Z"/></g>
<g><path style="opacity:0.004" fill="#fefffe" d="M 57.5,124.5 C 58.8333,125.167 58.8333,125.167 57.5,124.5 Z"/></g>
<g><path style="opacity:0.004" fill="#fefffe" d="M 55.5,126.5 C 56.8333,127.167 56.8333,127.167 55.5,126.5 Z"/></g>
<g><path style="opacity:0.756" fill="#404040" d="M 265.5,126.5 C 264.266,128.398 264.599,130.065 266.5,131.5C 264.053,131.615 262.053,132.615 260.5,134.5C 260.567,133.041 260.234,131.708 259.5,130.5C 260.625,128.871 261.959,127.371 263.5,126C 264.437,125.308 265.103,125.475 265.5,126.5 Z"/></g>
<g><path style="opacity:0.004" fill="#fefffe" d="M 565.5,126.5 C 566.833,127.167 566.833,127.167 565.5,126.5 Z"/></g>
<g><path style="opacity:0.016" fill="#dbdbdb" d="M 357.5,110.5 C 358.833,139.167 358.833,167.833 357.5,196.5C 338.326,196.83 319.326,196.497 300.5,195.5C 319.5,195.5 338.5,195.5 357.5,195.5C 357.304,167.31 357.304,138.977 357.5,110.5 Z"/></g>
<g><path style="opacity:0.004" fill="#fefffe" d="M 533.5,131.5 C 534.833,132.167 534.833,132.167 533.5,131.5 Z"/></g>
<g><path style="opacity:0.004" fill="#fefffe" d="M 4.5,132.5 C 5.83333,133.167 5.83333,133.167 4.5,132.5 Z"/></g>
<g><path style="opacity:0.176" fill="#a4a4a4" d="M 267.5,133.5 C 269.027,133.427 270.027,134.094 270.5,135.5C 268.973,135.573 267.973,134.906 267.5,133.5 Z"/></g>
<g><path style="opacity:0.004" fill="#fefffe" d="M 179.5,134.5 C 180.833,135.167 180.833,135.167 179.5,134.5 Z"/></g>
<g><path style="opacity:0.929" fill="#131313" d="M 259.5,130.5 C 260.234,131.708 260.567,133.041 260.5,134.5C 260.389,135.117 260.056,135.617 259.5,136C 260.71,137.039 261.71,138.206 262.5,139.5C 262.539,140.583 262.873,141.583 263.5,142.5C 263.043,143.298 262.376,143.631 261.5,143.5C 260.833,140.167 258.833,138.167 255.5,137.5C 254.806,134.419 256.139,132.086 259.5,130.5 Z"/></g>
<g><path style="opacity:0.173" fill="#a8a8a8" d="M 271.5,137.5 C 273.404,137.738 274.738,138.738 275.5,140.5C 273.596,140.262 272.262,139.262 271.5,137.5 Z"/></g>
<g><path style="opacity:0.627" fill="#636363" d="M 255.5,137.5 C 258.833,138.167 260.833,140.167 261.5,143.5C 259.167,141.833 257.167,139.833 255.5,137.5 Z"/></g>
<g><path style="opacity:0.745" fill="#252525" d="M 265.5,126.5 C 279.662,140.143 293.829,153.809 308,167.5C 307.957,172.216 309.124,176.549 311.5,180.5C 311.167,181.5 310.5,182.167 309.5,182.5C 308.14,181.82 306.807,181.153 305.5,180.5C 302.833,179.894 300.166,179.061 297.5,178C 299.708,177.809 301.708,177.309 303.5,176.5C 303.842,175.662 304.508,175.328 305.5,175.5C 306.45,176.076 306.617,174.409 306,170.5C 305.329,169.748 304.496,169.414 303.5,169.5C 300.81,167.807 298.81,165.473 297.5,162.5C 297.027,161.094 296.027,160.427 294.5,160.5C 291.167,156.833 287.833,153.167 284.5,149.5C 283.738,147.738 282.404,146.738 280.5,146.5C 280.167,145.833 279.833,145.167 279.5,144.5C 279.027,143.094 278.027,142.427 276.5,142.5C 276.167,141.833 275.833,141.167 275.5,140.5C 274.738,138.738 273.404,137.738 271.5,137.5C 271.167,136.833 270.833,136.167 270.5,135.5C 270.027,134.094 269.027,133.427 267.5,133.5C 267.167,132.833 266.833,132.167 266.5,131.5C 264.599,130.065 264.266,128.398 265.5,126.5 Z"/></g>
<g><path style="opacity:0.004" fill="#fefffe" d="M 517.5,141.5 C 518.833,142.167 518.833,142.167 517.5,141.5 Z"/></g>
<g><path style="opacity:0.176" fill="#a2a2a2" d="M 276.5,142.5 C 278.027,142.427 279.027,143.094 279.5,144.5C 277.973,144.573 276.973,143.906 276.5,142.5 Z"/></g>
<g><path style="opacity:0.004" fill="#fefffe" d="M 6.5,145.5 C 7.83333,146.167 7.83333,146.167 6.5,145.5 Z"/></g>
<g><path style="opacity:0.169" fill="#a4a4a4" d="M 280.5,146.5 C 282.404,146.738 283.738,147.738 284.5,149.5C 282.596,149.262 281.262,148.262 280.5,146.5 Z"/></g>
<g><path style="opacity:0.004" fill="#fefffe" d="M 363.5,148.5 C 364.833,149.167 364.833,149.167 363.5,148.5 Z"/></g>
<g><path style="opacity:0.004" fill="#fefffe" d="M 468.5,151.5 C 469.833,152.167 469.833,152.167 468.5,151.5 Z"/></g>
<g><path style="opacity:0.004" fill="#fefffe" d="M 9.5,154.5 C 10.8333,155.167 10.8333,155.167 9.5,154.5 Z"/></g>
<g><path style="opacity:0.184" fill="#a5a5a5" d="M 294.5,160.5 C 296.027,160.427 297.027,161.094 297.5,162.5C 295.973,162.573 294.973,161.906 294.5,160.5 Z"/></g>
<g><path style="opacity:0.004" fill="#fefffe" d="M 150.5,169.5 C 151.833,170.167 151.833,170.167 150.5,169.5 Z"/></g>
<g><path style="opacity:0.91" fill="#3f3f3f" d="M 262.5,139.5 C 274.965,151.465 287.298,163.631 299.5,176C 300.793,176.49 302.127,176.657 303.5,176.5C 301.708,177.309 299.708,177.809 297.5,178C 300.166,179.061 302.833,179.894 305.5,180.5C 302.813,180.664 300.146,180.497 297.5,180C 285.298,167.965 273.298,155.798 261.5,143.5C 262.376,143.631 263.043,143.298 263.5,142.5C 262.873,141.583 262.539,140.583 262.5,139.5 Z"/></g>
<g><path style="opacity:0.004" fill="#fefffe" d="M 171.5,172.5 C 172.833,173.167 172.833,173.167 171.5,172.5 Z"/></g>
<g><path style="opacity:0.333" fill="#848484" d="M 303.5,169.5 C 304.496,169.414 305.329,169.748 306,170.5C 306.617,174.409 306.45,176.076 305.5,175.5C 305.747,173.142 305.081,171.142 303.5,169.5 Z"/></g>
<g><path style="opacity:0.004" fill="#fefffe" d="M 373.5,174.5 C 374.833,175.167 374.833,175.167 373.5,174.5 Z"/></g>
<g><path style="opacity:0.004" fill="#fefffe" d="M 88.5,177.5 C 89.8333,178.167 89.8333,178.167 88.5,177.5 Z"/></g>
<g><path style="opacity:0.004" fill="#fefffe" d="M 449.5,182.5 C 450.833,183.167 450.833,183.167 449.5,182.5 Z"/></g>
<g><path style="opacity:0.004" fill="#fefffe" d="M 72.5,184.5 C 73.8333,185.167 73.8333,185.167 72.5,184.5 Z"/></g>
<g><path style="opacity:0.004" fill="#fefffe" d="M 495.5,184.5 C 496.833,185.167 496.833,185.167 495.5,184.5 Z"/></g>
<g><path style="opacity:0.074" fill="#232323" d="M 208.5,88.5 C 208.5,125.167 208.5,161.833 208.5,198.5C 233.339,198.169 258.006,198.502 282.5,199.5C 257.5,199.5 232.5,199.5 207.5,199.5C 207.168,162.33 207.502,125.33 208.5,88.5 Z"/></g>
<g><path style="opacity:0.004" fill="#fefffe" d="M 85.5,201.5 C 86.8333,202.167 86.8333,202.167 85.5,201.5 Z"/></g>
<g><path style="opacity:0.004" fill="#fefffe" d="M 158.5,209.5 C 159.833,210.167 159.833,210.167 158.5,209.5 Z"/></g>
<g><path style="opacity:0.004" fill="#fefffe" d="M 329.5,209.5 C 330.833,210.167 330.833,210.167 329.5,209.5 Z"/></g>
<g><path style="opacity:0.004" fill="#fefffe" d="M 169.5,210.5 C 170.833,211.167 170.833,211.167 169.5,210.5 Z"/></g>
<g><path style="opacity:0.004" fill="#fefffe" d="M 404.5,212.5 C 405.833,213.167 405.833,213.167 404.5,212.5 Z"/></g>
<g><path style="opacity:0.004" fill="#fefffe" d="M 116.5,218.5 C 117.833,219.167 117.833,219.167 116.5,218.5 Z"/></g>
<g><path style="opacity:0.004" fill="#fefffe" d="M 212.5,218.5 C 213.833,219.167 213.833,219.167 212.5,218.5 Z"/></g>
<g><path style="opacity:0.039" fill="#bcbcbc" d="M 282.5,199.5 C 283.492,206.982 283.825,214.648 283.5,222.5C 269.167,222.5 254.833,222.5 240.5,222.5C 254.323,221.504 268.323,221.171 282.5,221.5C 282.5,214.167 282.5,206.833 282.5,199.5 Z"/></g>
<g><path style="opacity:0.039" fill="#c7c7c7" d="M 286.5,221.5 C 300.833,221.5 315.167,221.5 329.5,221.5C 329.768,223.099 329.434,224.432 328.5,225.5C 328.5,224.5 328.5,223.5 328.5,222.5C 314.323,222.829 300.323,222.496 286.5,221.5 Z"/></g>
<g><path style="opacity:0.004" fill="#fefffe" d="M 97.5,237.5 C 98.8333,238.167 98.8333,238.167 97.5,237.5 Z"/></g>
<g><path style="opacity:0.004" fill="#fefffe" d="M 474.5,238.5 C 475.833,239.167 475.833,239.167 474.5,238.5 Z"/></g>
<g><path style="opacity:0.004" fill="#fefffe" d="M 398.5,239.5 C 399.833,240.167 399.833,240.167 398.5,239.5 Z"/></g>
<g><path style="opacity:0.004" fill="#fefffe" d="M 93.5,241.5 C 94.8333,242.167 94.8333,242.167 93.5,241.5 Z"/></g>
<g><path style="opacity:0.004" fill="#fefffe" d="M 382.5,243.5 C 383.833,244.167 383.833,244.167 382.5,243.5 Z"/></g>
<g><path style="opacity:0.165" fill="#a6a6a6" d="M 138.5,248.5 C 139.906,248.973 140.573,249.973 140.5,251.5C 140.167,251.5 139.833,251.5 139.5,251.5C 138.89,250.609 138.557,249.609 138.5,248.5 Z"/></g>
<g><path style="opacity:0.997" fill="#1f1f1f" d="M 193.5,303.5 C 195.571,304.809 198.071,305.475 201,305.5C 203.69,305.497 206.19,305.164 208.5,304.5C 208.833,304.5 209.167,304.5 209.5,304.5C 210.895,305.648 210.728,306.648 209,307.5C 204.719,306.03 200.552,306.364 196.5,308.5C 196.167,307.833 195.833,307.167 195.5,306.5C 194.397,308.104 192.897,309.104 191,309.5C 189.584,308.427 188.25,308.427 187,309.5C 183.899,307.986 180.733,306.653 177.5,305.5C 176.672,299.681 176.172,293.681 176,287.5C 175.283,286.956 174.783,286.289 174.5,285.5C 173.4,284.395 172.733,283.062 172.5,281.5C 173.145,280.188 174.145,279.188 175.5,278.5C 176.499,268.522 176.832,258.522 176.5,248.5C 180.5,248.5 184.5,248.5 188.5,248.5C 188.333,265.503 188.5,282.503 189,299.5C 190.371,301.041 191.871,302.375 193.5,303.5 Z"/></g>
<g><path style="opacity:0.004" fill="#fefffe" d="M 526.5,249.5 C 527.833,250.167 527.833,250.167 526.5,249.5 Z"/></g>
<g><path style="opacity:0.999" fill="#0f0f0f" d="M 337.5,256.5 C 335.533,256.739 333.699,256.406 332,255.5C 331.544,256.744 332.044,257.577 333.5,258C 331.05,260.988 329.05,260.488 327.5,256.5C 326.148,257.518 325.148,258.851 324.5,260.5C 323.473,259.209 322.473,259.209 321.5,260.5C 311.309,259.449 300.976,259.282 290.5,260C 289.54,256.27 289.207,252.437 289.5,248.5C 305.5,248.5 321.5,248.5 337.5,248.5C 337.5,251.167 337.5,253.833 337.5,256.5 Z"/></g>
<g><path style="opacity:1" fill="#151515" d="M 368.5,303.5 C 368.423,302.25 367.756,301.417 366.5,301C 369.167,300.333 369.167,299.667 366.5,299C 367.167,298.667 367.833,298.333 368.5,298C 366.915,295.931 365.581,293.764 364.5,291.5C 364.5,290.833 364.5,290.167 364.5,289.5C 371.117,280.377 377.951,271.377 385,262.5C 385.483,261.552 385.649,260.552 385.5,259.5C 374.5,259.5 363.5,259.5 352.5,259.5C 352.5,255.833 352.5,252.167 352.5,248.5C 368.833,248.5 385.167,248.5 401.5,248.5C 401.867,252.967 401.367,257.3 400,261.5C 390.021,275.967 379.521,289.967 368.5,303.5 Z"/></g>
<g><path style="opacity:0.998" fill="#151515" d="M 270.5,280.5 C 270.557,281.609 270.89,282.609 271.5,283.5C 270.167,284.933 268.667,286.267 267,287.5C 266.5,297.161 266.334,306.828 266.5,316.5C 262.5,316.5 258.5,316.5 254.5,316.5C 254.666,306.828 254.5,297.161 254,287.5C 252.478,285.978 250.978,284.478 249.5,283C 251.08,281.277 252.58,279.444 254,277.5C 254.5,267.839 254.666,258.172 254.5,248.5C 258.5,248.5 262.5,248.5 266.5,248.5C 266.334,258.172 266.5,267.839 267,277.5C 268.039,278.71 269.206,279.71 270.5,280.5 Z"/></g>
<g><path style="opacity:0.004" fill="#fefffe" d="M 580.5,255.5 C 581.833,256.167 581.833,256.167 580.5,255.5 Z"/></g>
<g><path style="opacity:0.994" fill="#161616" d="M 139.5,251.5 C 139.833,251.5 140.167,251.5 140.5,251.5C 144.092,253.586 147.259,256.253 150,259.5C 150.333,265.5 150.667,271.5 151,277.5C 152.039,278.71 153.206,279.71 154.5,280.5C 154.557,281.609 154.89,282.609 155.5,283.5C 154.521,285.145 153.188,286.479 151.5,287.5C 150.833,293.654 150.167,299.654 149.5,305.5C 148.5,305.833 147.833,306.5 147.5,307.5C 145.032,310.879 142.032,313.546 138.5,315.5C 138.013,314.527 137.513,313.527 137,312.5C 134.816,311.892 132.816,312.559 131,314.5C 129.024,311.735 126.524,309.735 123.5,308.5C 122.808,309.025 122.308,309.692 122,310.5C 121.097,309.299 119.931,308.465 118.5,308C 119.328,307.085 120.328,306.419 121.5,306C 119.942,305.79 118.609,305.29 117.5,304.5C 118.047,302.482 119.047,300.649 120.5,299C 124.152,298.501 127.818,298.335 131.5,298.5C 131.338,300.527 131.505,302.527 132,304.5C 134.051,302.476 136.384,300.81 139,299.5C 139.667,288.167 139.667,276.833 139,265.5C 137.955,264.627 137.122,263.627 136.5,262.5C 138.57,262.417 138.903,261.417 137.5,259.5C 138.592,257.399 139.592,255.232 140.5,253C 139.944,252.617 139.611,252.117 139.5,251.5 Z"/></g>
<g><path style="opacity:0.004" fill="#fefffe" d="M 380.5,260.5 C 381.833,261.167 381.833,261.167 380.5,260.5 Z"/></g>
<g><path style="opacity:0.998" fill="#181818" d="M 436.5,265.5 C 436.427,267.027 437.094,268.027 438.5,268.5C 440.223,270.253 441.723,272.253 443,274.5C 449.451,266.434 455.284,257.934 460.5,249C 464.871,248.172 469.205,248.339 473.5,249.5C 465.739,262.032 457.739,274.365 449.5,286.5C 448.811,296.401 448.144,306.401 447.5,316.5C 444.167,316.5 440.833,316.5 437.5,316.5C 437.666,306.494 437.5,296.494 437,286.5C 428.637,274.302 420.47,261.969 412.5,249.5C 416.795,248.339 421.129,248.172 425.5,249C 429.549,254.271 433.216,259.771 436.5,265.5 Z"/></g>
<g><path style="opacity:0.997" fill="#171717" d="M 138.5,248.5 C 138.557,249.609 138.89,250.609 139.5,251.5C 139.611,252.117 139.944,252.617 140.5,253C 139.592,255.232 138.592,257.399 137.5,259.5C 138.903,261.417 138.57,262.417 136.5,262.5C 130.902,259.614 124.902,258.78 118.5,260C 116.29,261.509 114.457,263.342 113,265.5C 112.333,276.833 112.333,288.167 113,299.5C 114.707,301.037 116.207,302.704 117.5,304.5C 118.609,305.29 119.942,305.79 121.5,306C 120.328,306.419 119.328,307.085 118.5,308C 119.931,308.465 121.097,309.299 122,310.5C 122.308,309.692 122.808,309.025 123.5,308.5C 126.524,309.735 129.024,311.735 131,314.5C 132.816,312.559 134.816,311.892 137,312.5C 137.513,313.527 138.013,314.527 138.5,315.5C 136.393,316.468 134.059,316.802 131.5,316.5C 131.875,319.397 131.375,322.063 130,324.5C 127.301,324.336 124.468,324.17 121.5,324C 119.436,322.982 119.102,321.649 120.5,320C 120.241,318.739 119.574,317.739 118.5,317C 116.423,316.808 114.423,316.308 112.5,315.5C 108.814,311.98 104.981,308.647 101,305.5C 100.667,299.5 100.333,293.5 100,287.5C 99.2828,286.956 98.7828,286.289 98.5,285.5C 97.3995,284.395 96.7329,283.062 96.5,281.5C 97.4577,280.038 98.6244,278.705 100,277.5C 100.333,271.5 100.667,265.5 101,259.5C 105.133,256.369 108.966,252.869 112.5,249C 121.16,248.5 129.827,248.334 138.5,248.5 Z"/></g>
<g><path style="opacity:0.271" fill="#929292" d="M 436.5,265.5 C 437.906,265.973 438.573,266.973 438.5,268.5C 437.094,268.027 436.427,267.027 436.5,265.5 Z"/></g>
<g><path style="opacity:0.004" fill="#fefffe" d="M 555.5,268.5 C 556.833,269.167 556.833,269.167 555.5,268.5 Z"/></g>
<g><path style="opacity:0.994" fill="#1b1b1b" d="M 177.5,305.5 C 180.733,306.653 183.899,307.986 187,309.5C 188.25,308.427 189.584,308.427 191,309.5C 192.897,309.104 194.397,308.104 195.5,306.5C 195.833,307.167 196.167,307.833 196.5,308.5C 200.552,306.364 204.719,306.03 209,307.5C 210.728,306.648 210.895,305.648 209.5,304.5C 211.437,303.069 213.27,301.402 215,299.5C 215.5,282.503 215.667,265.503 215.5,248.5C 219.437,248.207 223.27,248.54 227,249.5C 227.333,259.167 227.667,268.833 228,278.5C 233.824,281.267 233.824,284.267 228,287.5C 227.917,293.942 227.251,300.275 226,306.5C 222.142,309.697 218.309,312.863 214.5,316C 206.167,316.667 197.833,316.667 189.5,316C 185.307,312.635 181.307,309.135 177.5,305.5 Z"/></g>
<g><path style="opacity:0.004" fill="#fefffe" d="M 575.5,275.5 C 576.833,276.167 576.833,276.167 575.5,275.5 Z"/></g>
<g><path style="opacity:0.989" fill="#1d1d1d" d="M 337.5,256.5 C 337.628,258.655 337.128,260.655 336,262.5C 325.5,276.333 315,290.167 304.5,304C 307.84,304.453 311.174,304.953 314.5,305.5C 321.811,304.44 329.144,304.273 336.5,305C 337.46,308.73 337.793,312.563 337.5,316.5C 321.5,316.5 305.5,316.5 289.5,316.5C 289.334,312.154 289.501,307.821 290,303.5C 301.129,289.551 311.629,275.218 321.5,260.5C 322.473,259.209 323.473,259.209 324.5,260.5C 325.148,258.851 326.148,257.518 327.5,256.5C 329.05,260.488 331.05,260.988 333.5,258C 332.044,257.577 331.544,256.744 332,255.5C 333.699,256.406 335.533,256.739 337.5,256.5 Z"/></g>
<g><path style="opacity:0.004" fill="#fefffe" d="M 78.5,280.5 C 79.8333,281.167 79.8333,281.167 78.5,280.5 Z"/></g>
<g><path style="opacity:0.004" fill="#dcdcdc" d="M 270.5,280.5 C 272.382,281.221 272.715,282.221 271.5,283.5C 270.89,282.609 270.557,281.609 270.5,280.5 Z"/></g>
<g><path style="opacity:0.016" fill="#838383" d="M 154.5,280.5 C 156.382,281.221 156.715,282.221 155.5,283.5C 154.89,282.609 154.557,281.609 154.5,280.5 Z"/></g>
<g><path style="opacity:0.173" fill="#8e8e8e" d="M 96.5,281.5 C 96.7329,283.062 97.3995,284.395 98.5,285.5C 95.6909,285.042 95.0242,283.709 96.5,281.5 Z"/></g>
<g><path style="opacity:0.149" fill="#ababab" d="M 172.5,281.5 C 172.733,283.062 173.4,284.395 174.5,285.5C 171.691,285.042 171.024,283.709 172.5,281.5 Z"/></g>
<g><path style="opacity:0.004" fill="#fefffe" d="M 276.5,283.5 C 277.833,284.167 277.833,284.167 276.5,283.5 Z"/></g>
<g><path style="opacity:0.004" fill="#fefffe" d="M 540.5,289.5 C 541.833,290.167 541.833,290.167 540.5,289.5 Z"/></g>
<g><path style="opacity:0.169" fill="#989898" d="M 364.5,289.5 C 364.5,290.167 364.5,290.833 364.5,291.5C 363.833,291.833 363.167,292.167 362.5,292.5C 362.427,290.973 363.094,289.973 364.5,289.5 Z"/></g>
<g><path style="opacity:0.027" fill="#d9d9d9" d="M 449.5,286.5 C 450.141,296.889 449.474,306.889 447.5,316.5C 448.144,306.401 448.811,296.401 449.5,286.5 Z"/></g>
<g><path style="opacity:0.987" fill="#222222" d="M 364.5,291.5 C 365.581,293.764 366.915,295.931 368.5,298C 367.833,298.333 367.167,298.667 366.5,299C 369.167,299.667 369.167,300.333 366.5,301C 367.756,301.417 368.423,302.25 368.5,303.5C 372.182,304.261 376.015,304.928 380,305.5C 386.795,304.388 393.629,304.222 400.5,305C 401.46,308.73 401.793,312.563 401.5,316.5C 385.167,316.5 368.833,316.5 352.5,316.5C 352.335,312.818 352.501,309.152 353,305.5C 356.03,300.985 359.197,296.651 362.5,292.5C 363.167,292.167 363.833,291.833 364.5,291.5 Z"/></g>
<g><path style="opacity:0.004" fill="#fefffe" d="M 10.5,300.5 C 11.8333,301.167 11.8333,301.167 10.5,300.5 Z"/></g>
<g><path style="opacity:0.004" fill="#fefffe" d="M 493.5,300.5 C 494.833,301.167 494.833,301.167 493.5,300.5 Z"/></g>
<g><path style="opacity:0.004" fill="#ededed" d="M 193.5,303.5 C 198.405,304.445 203.405,304.779 208.5,304.5C 206.19,305.164 203.69,305.497 201,305.5C 198.071,305.475 195.571,304.809 193.5,303.5 Z"/></g>
<g><path style="opacity:0.004" fill="#fefffe" d="M 540.5,304.5 C 541.833,305.167 541.833,305.167 540.5,304.5 Z"/></g>
<g><path style="opacity:0.004" fill="#bfbfbf" d="M 149.5,305.5 C 149.5,306.833 148.833,307.5 147.5,307.5C 147.833,306.5 148.5,305.833 149.5,305.5 Z"/></g>
<g><path style="opacity:0.004" fill="#fefffe" d="M 91.5,309.5 C 92.8333,310.167 92.8333,310.167 91.5,309.5 Z"/></g>
<g><path style="opacity:0.004" fill="#fefffe" d="M 310.5,321.5 C 311.833,322.167 311.833,322.167 310.5,321.5 Z"/></g>
<g><path style="opacity:0.004" fill="#fefffe" d="M 470.5,326.5 C 471.833,327.167 471.833,327.167 470.5,326.5 Z"/></g>
<g><path style="opacity:0.004" fill="#fefffe" d="M 360.5,328.5 C 361.833,329.167 361.833,329.167 360.5,328.5 Z"/></g>
<g><path style="opacity:0.004" fill="#fefffe" d="M 330.5,334.5 C 331.833,335.167 331.833,335.167 330.5,334.5 Z"/></g>
<g><path style="opacity:0.004" fill="#fefffe" d="M 470.5,338.5 C 471.833,339.167 471.833,339.167 470.5,338.5 Z"/></g>
<g><path style="opacity:0.004" fill="#fefffe" d="M 533.5,350.5 C 534.833,351.167 534.833,351.167 533.5,350.5 Z"/></g>
<g><path style="opacity:0.004" fill="#fefffe" d="M 465.5,355.5 C 466.833,356.167 466.833,356.167 465.5,355.5 Z"/></g>
<g><path style="opacity:0.004" fill="#fefffe" d="M 558.5,364.5 C 559.833,365.167 559.833,365.167 558.5,364.5 Z"/></g>
<g><path style="opacity:0.004" fill="#fefffe" d="M 98.5,374.5 C 99.8333,375.167 99.8333,375.167 98.5,374.5 Z"/></g>
<g><path style="opacity:0.004" fill="#fefffe" d="M 263.5,377.5 C 264.833,378.167 264.833,378.167 263.5,377.5 Z"/></g>
<g><path style="opacity:0.004" fill="#fefffe" d="M 359.5,377.5 C 360.833,378.167 360.833,378.167 359.5,377.5 Z"/></g>
<g><path style="opacity:0.004" fill="#fefffe" d="M 391.5,378.5 C 392.833,379.167 392.833,379.167 391.5,378.5 Z"/></g>
<g><path style="opacity:0.004" fill="#fefffe" d="M 536.5,380.5 C 537.833,381.167 537.833,381.167 536.5,380.5 Z"/></g>
<g><path style="opacity:0.004" fill="#fefffe" d="M 303.5,382.5 C 304.833,383.167 304.833,383.167 303.5,382.5 Z"/></g>
<g><path style="opacity:0.004" fill="#fefffe" d="M 333.5,388.5 C 334.833,389.167 334.833,389.167 333.5,388.5 Z"/></g>
<g><path style="opacity:0.004" fill="#fefffe" d="M 232.5,390.5 C 233.833,391.167 233.833,391.167 232.5,390.5 Z"/></g>
<g><path style="opacity:0.004" fill="#fefffe" d="M 179.5,401.5 C 180.833,402.167 180.833,402.167 179.5,401.5 Z"/></g>
<g><path style="opacity:0.004" fill="#fefffe" d="M 221.5,410.5 C 222.833,411.167 222.833,411.167 221.5,410.5 Z"/></g>
<g><path style="opacity:0.004" fill="#fefffe" d="M 206.5,416.5 C 207.833,417.167 207.833,417.167 206.5,416.5 Z"/></g>
<g><path style="opacity:0.004" fill="#fefffe" d="M 403.5,417.5 C 404.833,418.167 404.833,418.167 403.5,417.5 Z"/></g>
<g><path style="opacity:0.004" fill="#fefffe" d="M 317.5,419.5 C 318.833,420.167 318.833,420.167 317.5,419.5 Z"/></g>
</svg>
